<svg width="81" height="24" viewBox="0 0 81 24" fill="none" xmlns="http://www.w3.org/2000/svg">
<path d="M21 21L15 15M3 10C3 10.9193 3.18106 11.8295 3.53284 12.6788C3.88463 13.5281 4.40024 14.2997 5.05025 14.9497C5.70026 15.5998 6.47194 16.1154 7.32122 16.4672C8.1705 16.8189 9.08075 17 10 17C10.9193 17 11.8295 16.8189 12.6788 16.4672C13.5281 16.1154 14.2997 15.5998 14.9497 14.9497C15.5998 14.2997 16.1154 13.5281 16.4672 12.6788C16.8189 11.8295 17 10.9193 17 10C17 9.08075 16.8189 8.1705 16.4672 7.32122C16.1154 6.47194 15.5998 5.70026 14.9497 5.05025C14.2997 4.40024 13.5281 3.88463 12.6788 3.53284C11.8295 3.18106 10.9193 3 10 3C9.08075 3 8.1705 3.18106 7.32122 3.53284C6.47194 3.88463 5.70026 4.40024 5.05025 5.05025C4.40024 5.70026 3.88463 6.47194 3.53284 7.32122C3.18106 8.1705 3 9.08075 3 10Z" stroke="#323232" stroke-width="2" stroke-linecap="round" stroke-linejoin="round"/>
<path d="M35.7727 8.27273C35.7045 7.69697 35.428 7.25 34.9432 6.93182C34.4583 6.61364 33.8636 6.45455 33.1591 6.45455C32.6439 6.45455 32.1932 6.53788 31.8068 6.70455C31.4242 6.87121 31.125 7.10038 30.9091 7.39205C30.697 7.68371 30.5909 8.01515 30.5909 8.38636C30.5909 8.69697 30.6648 8.96401 30.8125 9.1875C30.964 9.4072 31.1572 9.59091 31.392 9.73864C31.6269 9.88258 31.8731 10.0019 32.1307 10.0966C32.3883 10.1875 32.625 10.2614 32.8409 10.3182L34.0227 10.6364C34.3258 10.7159 34.6629 10.8258 35.0341 10.9659C35.4091 11.1061 35.767 11.2973 36.108 11.5398C36.4527 11.7784 36.7367 12.0852 36.9602 12.4602C37.1837 12.8352 37.2955 13.2955 37.2955 13.8409C37.2955 14.4697 37.1307 15.0379 36.8011 15.5455C36.4754 16.053 35.9981 16.4564 35.3693 16.7557C34.7443 17.0549 33.9848 17.2045 33.0909 17.2045C32.2576 17.2045 31.536 17.0701 30.9261 16.8011C30.3201 16.5322 29.8428 16.1572 29.4943 15.6761C29.1496 15.1951 28.9545 14.6364 28.9091 14H30.3636C30.4015 14.4394 30.5492 14.803 30.8068 15.0909C31.0682 15.375 31.3977 15.5871 31.7955 15.7273C32.197 15.8636 32.6288 15.9318 33.0909 15.9318C33.6288 15.9318 34.1117 15.8447 34.5398 15.6705C34.9678 15.4924 35.3068 15.2462 35.5568 14.9318C35.8068 14.6136 35.9318 14.2424 35.9318 13.8182C35.9318 13.4318 35.8239 13.1174 35.608 12.875C35.392 12.6326 35.108 12.4356 34.7557 12.2841C34.4034 12.1326 34.0227 12 33.6136 11.8864L32.1818 11.4773C31.2727 11.2159 30.553 10.8428 30.0227 10.358C29.4924 9.87311 29.2273 9.23864 29.2273 8.45455C29.2273 7.80303 29.4034 7.23485 29.7557 6.75C30.1117 6.26136 30.589 5.88258 31.1875 5.61364C31.7898 5.34091 32.4621 5.20455 33.2045 5.20455C33.9545 5.20455 34.6212 5.33901 35.2045 5.60795C35.7879 5.87311 36.25 6.23674 36.5909 6.69886C36.9356 7.16098 37.1174 7.68561 37.1364 8.27273H35.7727ZM43.0895 17.1818C42.2486 17.1818 41.5232 16.9962 40.9134 16.625C40.3073 16.25 39.8395 15.7273 39.5099 15.0568C39.1842 14.3826 39.0213 13.5985 39.0213 12.7045C39.0213 11.8106 39.1842 11.0227 39.5099 10.3409C39.8395 9.6553 40.2978 9.12121 40.8849 8.73864C41.4759 8.35227 42.1652 8.15909 42.9531 8.15909C43.4077 8.15909 43.8565 8.23485 44.2997 8.38636C44.7429 8.53788 45.1463 8.78409 45.5099 9.125C45.8736 9.46212 46.1634 9.90909 46.3793 10.4659C46.5952 11.0227 46.7031 11.7083 46.7031 12.5227V13.0909H39.9759V11.9318H45.3395C45.3395 11.4394 45.241 11 45.044 10.6136C44.8509 10.2273 44.5743 9.92235 44.2145 9.69886C43.8584 9.47538 43.438 9.36364 42.9531 9.36364C42.419 9.36364 41.9569 9.49621 41.5668 9.76136C41.1804 10.0227 40.883 10.3636 40.6747 10.7841C40.4664 11.2045 40.3622 11.6553 40.3622 12.1364V12.9091C40.3622 13.5682 40.4759 14.1269 40.7031 14.5852C40.9342 15.0398 41.2543 15.3864 41.6634 15.625C42.0724 15.8598 42.5478 15.9773 43.0895 15.9773C43.4418 15.9773 43.7599 15.928 44.044 15.8295C44.3319 15.7273 44.58 15.5758 44.7884 15.375C44.9967 15.1705 45.1577 14.9167 45.2713 14.6136L46.5668 14.9773C46.4304 15.4167 46.2012 15.803 45.8793 16.1364C45.5573 16.4659 45.1596 16.7235 44.6861 16.9091C44.2126 17.0909 43.6804 17.1818 43.0895 17.1818ZM51.3111 17.2045C50.758 17.2045 50.2562 17.1004 49.8054 16.892C49.3546 16.6799 48.9967 16.375 48.7315 15.9773C48.4664 15.5758 48.3338 15.0909 48.3338 14.5227C48.3338 14.0227 48.4323 13.6174 48.6293 13.3068C48.8262 12.9924 49.0895 12.7462 49.419 12.5682C49.7486 12.3902 50.1122 12.2576 50.5099 12.1705C50.9115 12.0795 51.3149 12.0076 51.7202 11.9545C52.2505 11.8864 52.6804 11.8352 53.0099 11.8011C53.3433 11.7633 53.5857 11.7008 53.7372 11.6136C53.8925 11.5265 53.9702 11.375 53.9702 11.1591V11.1136C53.9702 10.553 53.8168 10.1174 53.5099 9.80682C53.2069 9.49621 52.7467 9.34091 52.1293 9.34091C51.4891 9.34091 50.9872 9.48106 50.6236 9.76136C50.2599 10.0417 50.0043 10.3409 49.8565 10.6591L48.5838 10.2045C48.8111 9.67424 49.1141 9.26136 49.4929 8.96591C49.8755 8.66667 50.2921 8.45833 50.7429 8.34091C51.1974 8.2197 51.6444 8.15909 52.0838 8.15909C52.3641 8.15909 52.6861 8.19318 53.0497 8.26136C53.4171 8.32576 53.7713 8.46023 54.1122 8.66477C54.4569 8.86932 54.7429 9.17803 54.9702 9.59091C55.1974 10.0038 55.3111 10.5568 55.3111 11.25V17H53.9702V15.8182H53.902C53.8111 16.0076 53.6596 16.2102 53.4474 16.4261C53.2353 16.642 52.9531 16.8258 52.6009 16.9773C52.2486 17.1288 51.8187 17.2045 51.3111 17.2045ZM51.5156 16C52.0459 16 52.4929 15.8958 52.8565 15.6875C53.224 15.4792 53.5005 15.2102 53.6861 14.8807C53.8755 14.5511 53.9702 14.2045 53.9702 13.8409V12.6136C53.9134 12.6818 53.7884 12.7443 53.5952 12.8011C53.4058 12.8542 53.1861 12.9015 52.9361 12.9432C52.6899 12.9811 52.4493 13.0152 52.2145 13.0455C51.9834 13.072 51.7959 13.0947 51.652 13.1136C51.3035 13.1591 50.9777 13.233 50.6747 13.3352C50.3755 13.4337 50.133 13.5833 49.9474 13.7841C49.7656 13.9811 49.6747 14.25 49.6747 14.5909C49.6747 15.0568 49.8471 15.4091 50.1918 15.6477C50.5402 15.8826 50.9815 16 51.5156 16ZM57.7585 17V8.27273H59.054V9.59091H59.1449C59.304 9.15909 59.5919 8.80871 60.0085 8.53977C60.4252 8.27083 60.8949 8.13636 61.4176 8.13636C61.5161 8.13636 61.6392 8.13826 61.7869 8.14205C61.9347 8.14583 62.0464 8.15152 62.1222 8.15909V9.52273C62.0767 9.51136 61.9725 9.49432 61.8097 9.47159C61.6506 9.44508 61.482 9.43182 61.304 9.43182C60.8797 9.43182 60.5009 9.52083 60.1676 9.69886C59.8381 9.87311 59.5767 10.1155 59.3835 10.4261C59.1941 10.733 59.0994 11.0833 59.0994 11.4773V17H57.7585ZM66.9915 17.1818C66.1733 17.1818 65.4688 16.9886 64.8778 16.6023C64.2869 16.2159 63.8324 15.6837 63.5142 15.0057C63.196 14.3277 63.0369 13.553 63.0369 12.6818C63.0369 11.7955 63.1998 11.0133 63.5256 10.3352C63.8551 9.65341 64.3134 9.12121 64.9006 8.73864C65.4915 8.35227 66.1809 8.15909 66.9688 8.15909C67.5824 8.15909 68.1354 8.27273 68.6278 8.5C69.1203 8.72727 69.5237 9.04545 69.8381 9.45455C70.1525 9.86364 70.3475 10.3409 70.4233 10.8864H69.0824C68.9801 10.4886 68.7528 10.1364 68.4006 9.82955C68.0521 9.51894 67.5824 9.36364 66.9915 9.36364C66.4688 9.36364 66.0104 9.5 65.6165 9.77273C65.2263 10.0417 64.9214 10.4223 64.7017 10.9148C64.4858 11.4034 64.3778 11.9773 64.3778 12.6364C64.3778 13.3106 64.4839 13.8977 64.696 14.3977C64.9119 14.8977 65.215 15.286 65.6051 15.5625C65.9991 15.839 66.4612 15.9773 66.9915 15.9773C67.34 15.9773 67.6562 15.9167 67.9403 15.7955C68.2244 15.6742 68.465 15.5 68.6619 15.2727C68.8589 15.0455 68.9991 14.7727 69.0824 14.4545H70.4233C70.3475 14.9697 70.16 15.4337 69.8608 15.8466C69.5653 16.2557 69.1733 16.5814 68.6847 16.8239C68.1998 17.0625 67.6354 17.1818 66.9915 17.1818ZM73.7244 11.75V17H72.3835V5.36364H73.7244V9.63636H73.8381C74.0426 9.18561 74.3494 8.82765 74.7585 8.5625C75.1714 8.29356 75.7206 8.15909 76.4062 8.15909C77.0009 8.15909 77.5218 8.27841 77.9688 8.51705C78.4157 8.75189 78.7623 9.11364 79.0085 9.60227C79.2585 10.0871 79.3835 10.7045 79.3835 11.4545V17H78.0426V11.5455C78.0426 10.8523 77.8627 10.3163 77.5028 9.9375C77.1468 9.55492 76.6525 9.36364 76.0199 9.36364C75.5805 9.36364 75.1866 9.45644 74.8381 9.64205C74.4934 9.82765 74.2206 10.0985 74.0199 10.4545C73.8229 10.8106 73.7244 11.2424 73.7244 11.75Z" fill="#323232"/>
</svg>
